<svg width="55" height="56" viewBox="0 0 55 56" fill="none" xmlns="http://www.w3.org/2000/svg">
<path d="M22.3438 39.4583L20.625 46.3333L18.3333 48.625H36.6667L34.375 46.3333L32.6563 39.4583M6.875 30.2917H48.125M11.4583 39.4583H43.5417C44.7572 39.4583 45.923 38.9754 46.7826 38.1159C47.6421 37.2564 48.125 36.0906 48.125 34.875V11.9583C48.125 10.7428 47.6421 9.57697 46.7826 8.71743C45.923 7.85789 44.7572 7.375 43.5417 7.375H11.4583C10.2428 7.375 9.07697 7.85789 8.21743 8.71743C7.35789 9.57697 6.875 10.7428 6.875 11.9583V34.875C6.875 36.0906 7.35789 37.2564 8.21743 38.1159C9.07697 38.9754 10.2428 39.4583 11.4583 39.4583Z" stroke="black" stroke-width="2" stroke-linecap="round" stroke-linejoin="round"/>
</svg>
