<svg width="599" height="420" viewBox="0 0 599 420" fill="none" xmlns="http://www.w3.org/2000/svg">
<path fill-rule="evenodd" clip-rule="evenodd" d="M64.2243 2.35861L334.006 55.8081L333.091 61.0215L82.7361 239.768L81 241.007L82.7658 242.204L231.184 342.783C193.165 369.424 144.653 381.017 94.9685 371.173L2.73582 352.9L64.2243 2.35861ZM232.974 343.996C194.441 371.246 145.131 383.15 94.6229 373.143L2.39027 354.87L0.428406 354.481L0.773949 352.511L62.2624 1.96992L62.6079 0L64.5698 0.388688L334.351 53.8382L336.313 54.2269L335.968 56.1968L334.913 62.2125L597.314 239.865L599 241.007L597.562 242.448L489.197 351.04L345.127 420L232.974 343.996ZM334.534 64.3714L595.875 241.307L488.024 349.384L345.299 417.7L234.707 342.755C270.919 316.491 297.319 276.529 305.751 228.46L334.534 64.3714ZM332.599 63.8308L303.789 228.071C295.403 275.878 269.048 315.577 232.926 341.548L84.5019 240.964L332.599 63.8308Z" fill="#FBBC05"/>
</svg>
