<svg width="1376" height="1404" viewBox="0 0 1376 1404" fill="none" xmlns="http://www.w3.org/2000/svg">
<path d="M1383.62 645.555L681.022 639.447L1051.21 836.218L1383.62 645.555Z" stroke="#D3D3D3" stroke-opacity="0.5" stroke-width="2.54393" stroke-miterlimit="10"/>
<path d="M1584.68 437.139L1383.62 673.557L1433.28 1152.63L1584.68 437.139Z" stroke="#D3D3D3" stroke-opacity="0.5" stroke-width="2.54393" stroke-miterlimit="10"/>
<path d="M1583.5 405.766L1022.19 176.077L681.022 639.448L1106.56 420.625L1583.5 405.766Z" stroke="#D3D3D3" stroke-opacity="0.5" stroke-width="2.54393" stroke-miterlimit="10"/>
<path d="M854.214 1132.05L1433.28 1124.63L1051.21 836.22L853.97 1131.35" stroke="#D3D3D3" stroke-opacity="0.5" stroke-width="2.54393" stroke-miterlimit="10"/>
<path d="M854.339 1131.22L681.013 639.452L496.552 930.099L854.339 1131.22Z" stroke="#D3D3D3" stroke-opacity="0.5" stroke-width="2.54393" stroke-miterlimit="10"/>
<path d="M1022.19 176.075L666.487 200.983L665.852 201.533L395.19 675.309L681.02 639.446L666.487 200.983" stroke="#D3D3D3" stroke-opacity="0.5" stroke-width="2.54393" stroke-miterlimit="10"/>
<path d="M186.449 963.86L496.561 930.093" stroke="#D3D3D3" stroke-opacity="0.5" stroke-width="2.54393" stroke-miterlimit="10"/>
<path d="M854.677 1132.18L185.787 964.423L395.186 675.315" stroke="#D3D3D3" stroke-opacity="0.5" stroke-width="2.54393" stroke-miterlimit="10"/>
</svg>
